<?xml version="1.0" standalone="no"?>
<!DOCTYPE svg PUBLIC "-//W3C//DTD SVG 20010904//EN"
 "http://www.w3.org/TR/2001/REC-SVG-20010904/DTD/svg10.dtd">
<svg version="1.0" xmlns="http://www.w3.org/2000/svg"
 width="278.000000pt" height="278.000000pt" viewBox="0 0 278.000000 278.000000"
 preserveAspectRatio="xMidYMid meet">
<metadata>
Created by potrace 1.14, written by Peter Selinger 2001-2017
</metadata>
<g transform="translate(0.000000,278.000000) scale(0.100000,-0.100000)"
fill="#000000" stroke="none">
<path d="M1215 2279 c-516 -149 -941 -272 -943 -273 -2 -2 -64 -147 -138 -322
-122 -287 -135 -324 -131 -365 8 -94 7 -93 510 -389 254 -150 476 -280 492
-290 17 -9 170 -100 340 -200 374 -221 355 -212 409 -212 80 0 125 37 182 148
20 38 62 119 94 179 32 61 83 160 115 220 32 61 79 151 105 200 51 98 119 226
225 430 37 72 83 158 101 192 18 34 72 136 119 227 93 181 100 210 65 280 -19
39 -38 55 -155 138 -27 19 -135 97 -240 172 -104 75 -194 136 -200 135 -5 -1
-433 -122 -950 -270z m1141 -83 c118 -85 220 -156 227 -159 12 -4 -34 -102
-174 -367 -33 -63 -90 -171 -126 -240 -36 -69 -85 -161 -108 -205 -23 -44 -71
-134 -105 -200 -93 -179 -160 -306 -231 -440 -34 -66 -68 -130 -73 -142 -6
-13 -14 -23 -18 -23 -8 0 -115 62 -978 570 -311 183 -569 336 -574 340 -10 10
-7 18 116 308 66 156 97 216 112 223 17 7 412 121 466 134 8 2 40 11 70 20 30
9 62 18 70 20 8 2 166 47 350 100 184 53 342 98 350 100 8 2 98 28 200 58 102
30 191 55 198 56 8 1 110 -68 228 -153z"/>
<path d="M1661 1969 c-52 -16 -95 -30 -97 -32 -1 -1 22 -85 50 -187 58 -205
75 -233 145 -245 36 -6 115 9 134 25 4 4 -13 81 -38 171 -71 255 -85 299 -93
298 -4 -1 -49 -14 -101 -30z"/>
<path d="M1003 1782 c-50 -15 -94 -30 -98 -33 -5 -5 118 -456 127 -464 10 -9
128 39 146 58 42 44 39 82 -18 282 -29 102 -56 185 -59 184 -3 0 -47 -13 -98
-27z"/>
</g>
</svg>
