<svg width="28" height="23" viewBox="0 0 28 23" fill="none" xmlns="http://www.w3.org/2000/svg">
<path d="M17.6285 23C17.6285 23 17.5739 23 17.552 23C17.4756 23 17.3991 22.9891 17.3227 22.9782C17.2462 22.9673 17.1643 22.9456 17.0933 22.9184C17.0005 22.8857 16.9131 22.8476 16.8312 22.7986L0.770825 13.726C0.694373 13.6824 0.628843 13.6335 0.568773 13.5845C0.508704 13.5409 0.454096 13.4865 0.404948 13.4266C0.230201 13.247 0.110062 13.0185 0.0499925 12.7735C0.0281491 12.7137 0.0172274 12.6157 0.00630565 12.5232C-0.00461606 12.4252 0.000844797 12.3273 0.00630565 12.2293C0.00630565 12.1912 0.0172274 12.1422 0.0281491 12.0932C0.0390708 12.0442 0.0499925 11.9953 0.066375 11.9463L0.0772967 11.8538L0.15921 11.7123L3.09715 5.1867L21.3146 0L27.3816 4.08187L27.4089 4.10364L27.6273 4.25059L27.6819 4.34856L27.8567 4.44652L27.8894 4.73497C27.9877 4.969 28.0205 5.23024 27.9877 5.48604C27.9823 5.56768 27.9604 5.67653 27.9222 5.77449C27.9003 5.85069 27.8567 5.94865 27.8075 6.04117L27.7638 6.11193L18.9828 22.1945C18.9445 22.2707 18.8845 22.3632 18.808 22.4449C18.7862 22.4775 18.7261 22.5374 18.666 22.5918C18.5131 22.7442 18.2783 22.8748 18.0271 22.9456C17.9015 22.9837 17.765 23 17.6285 23ZM17.552 21.3945C17.552 21.3945 17.5411 21.4108 17.5302 21.4326L17.552 21.389V21.3945ZM1.67187 12.3654L17.5793 21.3455L26.3058 5.3663L26.2293 5.31732L26.2184 5.27378L21.0306 1.78514L4.28215 6.54733L1.67187 12.3654Z" fill="#D3FA81"/>
</svg>
